<svg width="24" height="24" viewBox="0 0 24 24" fill="none" xmlns="http://www.w3.org/2000/svg">
<path d="M19.7576 5.81273H16.0279C15.7945 3.67879 14.023 2 11.8788 2C9.73455 2 7.96303 3.67879 7.7297 5.81273H4V22H19.7339L19.7576 5.81273ZM11.8788 2.95939C13.5103 2.95939 14.8394 4.20606 15.0727 5.81273H8.68485C8.91818 4.20667 10.2473 2.95939 11.8788 2.95939ZM18.8255 21.0406H4.93273V6.77212H7.70667V9.67394C8.17273 9.67394 7.91636 9.67394 8.17273 9.67394C8.42909 9.67394 8.17273 9.67394 8.63879 9.67394V6.77212H15.1188V9.67394C15.5855 9.67394 15.3285 9.67394 15.5855 9.67394C15.8412 9.67394 15.5855 9.67394 16.0509 9.67394V6.77212H18.8248L18.8255 21.0406Z" fill="currentColor"/>
</svg>
