<svg width="24" height="24" viewBox="0 0 24 24" fill="none" xmlns="http://www.w3.org/2000/svg">
<path fill-rule="evenodd" clip-rule="evenodd" d="M16.928 3C20.6859 3 23 5.32339 23 9.13439C23 10.6018 22.1189 12.4057 20.5286 14.499C19.7122 15.5737 18.7234 16.703 17.5992 17.8665C16.4356 19.0708 15.1901 20.2479 13.9446 21.3501C13.5087 21.7359 13.1038 22.0848 12.7402 22.391C12.5215 22.5753 12.3646 22.7047 12.28 22.7732L12 23L11.72 22.7732C11.6354 22.7047 11.4785 22.5753 11.2598 22.391C10.8962 22.0848 10.4913 21.7359 10.0554 21.3501C8.80995 20.2479 7.56441 19.0708 6.40078 17.8665C5.27664 16.703 4.28784 15.5737 3.47136 14.499C1.88105 12.4057 1 10.6018 1 9.13439C1 5.32339 3.3141 3 7.072 3C8.97942 3 10.9504 4.40757 11.9999 6.22584C13.0494 4.40701 15.0192 3 16.928 3ZM12.0006 21.7351C12.0504 21.6935 12.1053 21.6475 12.165 21.5972C12.5171 21.3007 12.9096 20.9624 13.3325 20.5882C14.5406 19.5189 15.7487 18.3773 16.8751 17.2115C17.9579 16.0908 18.9079 15.0057 19.6878 13.9792C21.1479 12.0574 21.9446 10.426 21.9446 9.2155C21.9446 5.93546 20.0535 4.03677 16.8429 4.03677C15.1222 4.03677 13.232 5.54835 12.4632 7.35526C12.4228 7.45009 12.3716 7.54002 12.3068 7.62019L11.9999 8L11.6937 7.61968C11.6295 7.53985 11.5786 7.45037 11.5385 7.35606C10.7701 5.54966 8.87794 4.03677 7.15834 4.03677C3.94774 4.03677 2.05664 5.93546 2.05664 9.2155C2.05664 10.426 2.8534 12.0574 4.31344 13.9792C5.09335 15.0057 6.0434 16.0908 7.12613 17.2115C8.25257 18.3773 9.46065 19.5189 10.6688 20.5882C11.0917 20.9624 11.4842 21.3007 11.8363 21.5972C11.896 21.6475 11.9509 21.6935 12.0006 21.7351Z" fill="currentColor"/>
</svg>
