<svg width="24" height="24" viewBox="0 0 24 24" fill="none" xmlns="http://www.w3.org/2000/svg">
<path d="M12 3L12.3622 2.58608L12 2.26918L11.6378 2.58608L12 3ZM20 20V20.55H20.55L20.55 20H20ZM15 20L14.45 20L14.45 20.55H15V20ZM15 16L15.55 16L15 16ZM14.1213 13.8787L14.5102 13.4898L14.5102 13.4898L14.1213 13.8787ZM9 20V20.55H9.55V20H9ZM4 20H3.45L3.45 20.55H4V20ZM19.6585 9.70119L20.0207 9.28727L19.6585 9.70119ZM20 10.4538H20.55H20ZM20.0207 9.28727L12.3622 2.58608L11.6378 3.41392L19.2963 10.1151L20.0207 9.28727ZM19.45 10.4538L19.45 20H20.55L20.55 10.4538L19.45 10.4538ZM20 19.45H15V20.55H20V19.45ZM15.55 16C15.55 14.9475 15.1687 14.1482 14.5102 13.4898L13.7324 14.2676C14.1992 14.7343 14.45 15.2592 14.45 16L15.55 16ZM14.5102 13.4898C13.8445 12.824 12.9415 12.45 12 12.45V13.55C12.6498 13.55 13.273 13.8081 13.7324 14.2676L14.5102 13.4898ZM12 12.45C11.0585 12.45 10.1555 12.824 9.48978 13.4898L10.2676 14.2676C10.7271 13.8081 11.3502 13.55 12 13.55V12.45ZM9.48978 13.4898C8.82402 14.1555 8.45 15.0585 8.45 16H9.55C9.55 15.3502 9.80813 14.7271 10.2676 14.2676L9.48978 13.4898ZM8.45 16V20H9.55V16H8.45ZM9 19.45H4V20.55H9V19.45ZM4.55 20L4.55 10.4538L3.45 10.4538L3.45 20H4.55ZM11.6378 2.58608L3.97932 9.28727L4.70367 10.1151L12.3622 3.41392L11.6378 2.58608ZM15 20C15.55 20 15.55 20 15.55 20C15.55 20 15.55 19.9999 15.55 19.9999C15.55 19.9998 15.55 19.9997 15.55 19.9995C15.55 19.9992 15.55 19.9988 15.55 19.9982C15.55 19.997 15.55 19.9952 15.55 19.9928C15.55 19.988 15.55 19.9809 15.55 19.9716C15.55 19.9529 15.55 19.9253 15.55 19.8896C15.55 19.8184 15.55 19.7148 15.55 19.5859C15.55 19.3281 15.55 18.9687 15.55 18.5625C15.55 17.75 15.55 16.75 15.55 16L14.45 16C14.45 16.75 14.45 17.75 14.45 18.5625C14.45 18.9688 14.45 19.3281 14.45 19.5859C14.45 19.7148 14.45 19.8184 14.45 19.8896C14.45 19.9253 14.45 19.9529 14.45 19.9716C14.45 19.9809 14.45 19.988 14.45 19.9928C14.45 19.9952 14.45 19.997 14.45 19.9982C14.45 19.9988 14.45 19.9992 14.45 19.9995C14.45 19.9997 14.45 19.9998 14.45 19.9999C14.45 19.9999 14.45 20 14.45 20C14.45 20 14.45 20 15 20ZM19.2963 10.1151C19.394 10.2006 19.45 10.324 19.45 10.4538L20.55 10.4538C20.55 10.0068 20.3571 9.5816 20.0207 9.28727L19.2963 10.1151ZM4.55 10.4538C4.55 10.324 4.60602 10.2006 4.70367 10.1151L3.97932 9.28727C3.64294 9.5816 3.45 10.0068 3.45 10.4538L4.55 10.4538Z" fill="currentColor"/>
</svg>
