<svg width="24" height="24" viewBox="0 0 24 24" fill="none" xmlns="http://www.w3.org/2000/svg">
<path fill-rule="evenodd" clip-rule="evenodd" d="M7.56488 9.04707C7.56488 11.6692 9.48249 13.8027 11.84 13.8027C14.1975 13.8027 16.1151 11.6692 16.1151 9.04707C16.1151 6.42493 14.1975 4.29144 11.84 4.29144C9.48249 4.29144 7.56488 6.42493 7.56488 9.04707ZM8.46809 9.04715C8.46809 6.92269 9.98104 5.19477 11.8399 5.19477C13.6988 5.19477 15.2118 6.92269 15.2118 9.04715C15.2118 11.1716 13.6988 12.8995 11.8399 12.8995C9.98104 12.8995 8.46809 11.1716 8.46809 9.04715Z" fill="currentColor"/>
<path d="M4.10264 19.2683C4.04393 19.2683 3.98432 19.2566 3.92651 19.2322C3.69708 19.1346 3.5896 18.87 3.68624 18.6405C4.63647 16.3932 6.82686 14.9417 9.26655 14.9417H14.4133C16.8358 14.9417 19.0208 16.3797 19.9782 18.6053C20.0767 18.8347 19.971 19.1003 19.7416 19.1987C19.5131 19.2972 19.2466 19.1915 19.1481 18.9621C18.3334 17.068 16.4745 15.8441 14.4124 15.8441H9.26655C7.19087 15.8441 5.32655 17.0797 4.51814 18.9919C4.44588 19.1653 4.27788 19.2683 4.10264 19.2683Z" fill="currentColor"/>
<path fill-rule="evenodd" clip-rule="evenodd" d="M1 11.8399C1 17.8168 5.86312 22.6799 11.8399 22.6799C17.8168 22.6799 22.6799 17.8168 22.6799 11.8399C22.6799 5.86312 17.8168 1 11.8399 1C5.86312 1 1 5.86312 1 11.8399ZM1.90328 11.84C1.90328 6.36084 6.36084 1.90328 11.84 1.90328C17.3191 1.90328 21.7767 6.36084 21.7767 11.84C21.7767 17.3191 17.3191 21.7767 11.84 21.7767C6.36084 21.7767 1.90328 17.3191 1.90328 11.84Z" fill="currentColor"/>
</svg>
