<svg width="24" height="24" viewBox="0 0 24 24" fill="none" xmlns="http://www.w3.org/2000/svg">
<path fill-rule="evenodd" clip-rule="evenodd" d="M17.6055 10.4028C17.6055 14.3807 14.3807 17.6055 10.4028 17.6055C6.42479 17.6055 3.2 14.3807 3.2 10.4028C3.2 6.42479 6.42479 3.2 10.4028 3.2C14.3807 3.2 17.6055 6.42479 17.6055 10.4028ZM15.4526 17.1194C14.0469 18.178 12.2981 18.8055 10.4028 18.8055C5.76204 18.8055 2 15.0435 2 10.4028C2 5.76204 5.76204 2 10.4028 2C15.0435 2 18.8055 5.76204 18.8055 10.4028C18.8055 12.7154 17.8712 14.8098 16.3595 16.3292L21.1817 21.1515L20.3332 22L15.4526 17.1194Z" fill="currentColor"/>
</svg>
